HIERARCHY
ROOT hip
{
	OFFSET 0.000000 0.000000 0.000000 
	CHANNELS 6 Xposition Yposition Zposition Zrotation Yrotation Xrotation
	JOINT abdomen
	{
		OFFSET 0.000000 0.161626 -0.005715 
		CHANNELS 3 Zrotation Xrotation Yrotation
		JOINT chest
		{
			OFFSET 0.000000 0.091440 -0.003810 
			CHANNELS 3 Zrotation Xrotation Yrotation
			JOINT neck
			{
				OFFSET 0.000000 0.173355 -0.017145 
				CHANNELS 3 Zrotation Xrotation Yrotation
				JOINT head
				{
					OFFSET -0.001905 0.055245 0.009525 
					CHANNELS 3 Zrotation Xrotation Yrotation
					JOINT leftEye
					{
						OFFSET 0.032385 0.062865 0.062865 
						CHANNELS 3 Zrotation Xrotation Yrotation
						End Site
						{
							OFFSET 0.007812 0.000000 0.000000 
						}
					}
					JOINT rightEye
					{
						OFFSET -0.028575 0.062865 0.062865 
						CHANNELS 3 Zrotation Xrotation Yrotation
						End Site
						{
							OFFSET 0.007812 0.000000 0.000000 
						}
					}
				}
			}
			JOINT rCollar
			{
				OFFSET -0.020955 0.150495 -0.038100 
				CHANNELS 3 Zrotation Xrotation Yrotation
				JOINT rShldr
				{
					OFFSET -0.068580 -0.015240 0.011430 
					CHANNELS 3 Zrotation Xrotation Yrotation
					JOINT rForeArm
					{
						OFFSET -0.220111 -0.013371 0.003810 
						CHANNELS 3 Zrotation Xrotation Yrotation
						JOINT rHand
						{
							OFFSET -0.176468 0.006041 0.055245 
							CHANNELS 3 Zrotation Xrotation Yrotation
							JOINT rThumb1
							{
								OFFSET -0.009525 -0.003812 0.026670 
								CHANNELS 3 Zrotation Xrotation Yrotation
								JOINT rThumb2
								{
									OFFSET -0.026331 -0.004098 0.026670 
									CHANNELS 3 Zrotation Xrotation Yrotation
									End Site
									{
										OFFSET -0.013927 -0.009235 0.011176 
									}
								}
							}
							JOINT rIndex1
							{
								OFFSET -0.060621 0.007330 0.043815 
								CHANNELS 3 Zrotation Xrotation Yrotation
								JOINT rIndex2
								{
									OFFSET -0.019848 -0.006908 0.012230 
									CHANNELS 3 Zrotation Xrotation Yrotation
									End Site
									{
										OFFSET -0.012697 -0.001834 0.009102 
									}
								}
							}
							JOINT rMid1
							{
								OFFSET -0.064431 0.009235 0.026670 
								CHANNELS 3 Zrotation Xrotation Yrotation
								JOINT rMid2
								{
									OFFSET -0.024232 -0.004610 0.008318 
									CHANNELS 3 Zrotation Xrotation Yrotation
									End Site
									{
										OFFSET -0.019418 -0.002570 0.006542 
									}
								}
							}
							JOINT rRing1
							{
								OFFSET -0.068970 0.004271 0.011850 
								CHANNELS 3 Zrotation Xrotation Yrotation
								JOINT rRing2
								{
									OFFSET -0.020385 -0.006405 -0.000155 
									CHANNELS 3 Zrotation Xrotation Yrotation
									End Site
									{
										OFFSET -0.018269 -0.002297 0.001313 
									}
								}
							}
							JOINT rPinky1
							{
								OFFSET -0.064625 -0.000373 -0.003581 
								CHANNELS 3 Zrotation Xrotation Yrotation
								JOINT rPinky2
								{
									OFFSET -0.014276 -0.005058 -0.005476 
									CHANNELS 3 Zrotation Xrotation Yrotation
									End Site
									{
										OFFSET -0.013221 -0.004044 -0.004744 
									}
								}
							}
						}
					}
				}
			}
			JOINT lCollar
			{
				OFFSET 0.020955 0.150495 -0.038100 
				CHANNELS 3 Zrotation Xrotation Yrotation
				JOINT lShldr
				{
					OFFSET 0.068580 -0.015240 0.011430 
					CHANNELS 3 Zrotation Xrotation Yrotation
					JOINT lForeArm
					{
						OFFSET 0.220111 -0.013371 0.003810 
						CHANNELS 3 Zrotation Xrotation Yrotation
						JOINT lHand
						{
							OFFSET 0.176468 0.006041 0.055245 
							CHANNELS 3 Zrotation Xrotation Yrotation
							JOINT lThumb1
							{
								OFFSET 0.009525 -0.003812 0.026670 
								CHANNELS 3 Zrotation Xrotation Yrotation
								JOINT lThumb2
								{
									OFFSET 0.026331 -0.004098 0.026670 
									CHANNELS 3 Zrotation Xrotation Yrotation
									End Site
									{
										OFFSET 0.013927 -0.009235 0.011176 
									}
								}
							}
							JOINT lIndex1
							{
								OFFSET 0.060621 0.007330 0.043815 
								CHANNELS 3 Zrotation Xrotation Yrotation
								JOINT lIndex2
								{
									OFFSET 0.019848 -0.006908 0.012230 
									CHANNELS 3 Zrotation Xrotation Yrotation
									End Site
									{
										OFFSET 0.012697 -0.001834 0.009102 
									}
								}
							}
							JOINT lMid1
							{
								OFFSET 0.064431 0.009235 0.026670 
								CHANNELS 3 Zrotation Xrotation Yrotation
								JOINT lMid2
								{
									OFFSET 0.024232 -0.004610 0.008318 
									CHANNELS 3 Zrotation Xrotation Yrotation
									End Site
									{
										OFFSET 0.019418 -0.002570 0.006542 
									}
								}
							}
							JOINT lRing1
							{
								OFFSET 0.068970 0.004271 0.011850 
								CHANNELS 3 Zrotation Xrotation Yrotation
								JOINT lRing2
								{
									OFFSET 0.020385 -0.006405 -0.000155 
									CHANNELS 3 Zrotation Xrotation Yrotation
									End Site
									{
										OFFSET 0.018269 -0.002297 0.001313 
									}
								}
							}
							JOINT lPinky1
							{
								OFFSET 0.064625 -0.000373 -0.003581 
								CHANNELS 3 Zrotation Xrotation Yrotation
								JOINT lPinky2
								{
									OFFSET 0.014276 -0.005058 -0.005476 
									CHANNELS 3 Zrotation Xrotation Yrotation
									End Site
									{
										OFFSET 0.013221 -0.004044 -0.004744 
									}
								}
							}
						}
					}
				}
			}
		}
	}
	JOINT rButtock
	{
		OFFSET -0.068580 0.033991 0.009525 
		CHANNELS 3 Zrotation Xrotation Yrotation
		JOINT rThigh
		{
			OFFSET 0.000000 -0.013335 -0.017145 
			CHANNELS 3 Zrotation Xrotation Yrotation
			JOINT rShin
			{
				OFFSET 0.000000 -0.287655 0.005715 
				CHANNELS 3 Zrotation Xrotation Yrotation
				JOINT rFoot
				{
					OFFSET 0.005715 -0.352425 -0.040005 
					CHANNELS 3 Zrotation Xrotation Yrotation
					End Site
					{
						OFFSET -0.008766 -0.028903 0.094555 
					}
				}
			}
		}
	}
	JOINT lButtock
	{
		OFFSET 0.068580 0.033991 0.009525 
		CHANNELS 3 Zrotation Xrotation Yrotation
		JOINT lThigh
		{
			OFFSET 0.000000 -0.013335 -0.017145 
			CHANNELS 3 Zrotation Xrotation Yrotation
			JOINT lShin
			{
				OFFSET 0.000000 -0.287655 0.005715 
				CHANNELS 3 Zrotation Xrotation Yrotation
				JOINT lFoot
				{
					OFFSET -0.005715 -0.352425 -0.040005 
					CHANNELS 3 Zrotation Xrotation Yrotation
					End Site
					{
						OFFSET 0.008766 -0.028903 0.094555 
					}
				}
			}
		}
	}
}
MOTION
Frames: 7
Frame Time: 0.008333
-0.724273 0.656416 -0.031724 -76.009003 85.804100 -63.665600 1.670560 -3.182100 1.703170 0.094477 1.394330 0.478754 -0.866326 2.573570 -0.989508 2.022720 -5.089590 -1.518990 -0.000000 0.000000 0.000000 -0.000000 0.000000 0.000000 -0.000000 -0.000000 -0.000000 23.828100 19.804501 -0.668514 -24.642200 -22.470100 14.522700 0.088395 -6.607450 -0.906514 0.000000 0.000000 0.000000 0.000000 0.000000 0.000000 0.000000 0.000000 0.000000 7.730910 5.474880 0.417314 0.000000 0.000000 0.000000 2.905540 0.965183 0.102902 0.000000 0.000000 0.000000 10.278600 0.731801 0.025912 0.000000 0.000000 0.000000 2.221670 -0.733487 -0.208920 -0.000000 -0.000000 -0.000000 -22.861500 21.227400 -1.960000 25.039801 -22.842100 -14.411800 -0.040600 -4.472360 0.621654 -0.000000 0.000000 -0.000000 -0.000000 0.000000 -0.000000 -0.000000 0.000000 -0.000000 -7.730910 5.474880 -0.417314 -0.000000 0.000000 -0.000000 -2.905540 0.965183 -0.102902 -0.000000 0.000000 -0.000000 -10.278600 0.731801 -0.025912 -0.000000 0.000000 -0.000000 -2.221670 -0.733487 0.208920 -0.000000 0.000000 -0.000000 -0.287974 -12.251300 1.257250 0.000243 7.606360 0.082658 -0.785026 -0.632499 -3.850320 0.000000 0.000000 0.000000 1.186600 -6.358850 1.959160 0.001071 2.116020 0.001144 0.444866 -0.705161 0.044303 
-0.726513 0.655922 -0.033564 -74.437897 85.755203 -62.030899 3.055100 -6.536440 3.510930 0.008802 2.863200 0.959316 -1.700570 5.308820 -2.033870 3.900100 -10.491700 -3.140610 -0.000000 0.000000 0.000000 -0.000000 0.000000 0.000000 -0.000000 -0.000000 -0.000000 49.653702 40.742802 -1.694490 -35.456299 -40.884201 37.738098 -0.051722 -13.614700 -1.909710 0.000000 0.000000 0.000000 0.000000 0.000000 0.000000 0.000000 0.000000 0.000000 7.730910 5.474880 0.417314 0.000000 0.000000 0.000000 2.905540 0.965183 0.102902 0.000000 0.000000 0.000000 10.278600 0.731801 0.025912 0.000000 0.000000 0.000000 2.221670 -0.733487 -0.208920 -0.000000 -0.000000 -0.000000 -44.916901 43.568100 -5.179780 35.967098 -41.619701 -37.809601 0.023287 -9.204800 1.292430 -0.000000 0.000000 -0.000000 -0.000000 0.000000 -0.000000 -0.000000 0.000000 -0.000000 -7.730910 5.474880 -0.417314 -0.000000 0.000000 -0.000000 -2.905540 0.965183 -0.102902 -0.000000 0.000000 -0.000000 -10.278600 0.731801 -0.025912 -0.000000 0.000000 -0.000000 -2.221670 -0.733487 0.208920 -0.000000 0.000000 -0.000000 -1.156300 -20.404301 2.828490 -0.015217 12.818900 0.181807 -1.457910 -3.256920 -8.037390 0.000000 0.000000 0.000000 2.816930 -10.569800 4.050210 0.002604 5.712550 -0.070812 0.423004 -5.303030 0.242316 
-0.728787 0.655427 -0.035437 -72.198303 85.706200 -59.703701 4.460520 -9.507090 5.140430 -0.091657 4.190770 1.386050 -2.330360 7.711450 -2.992620 5.234490 -15.225000 -4.704460 -0.000000 0.000000 0.000000 -0.000000 0.000000 0.000000 -0.000000 -0.000000 -0.000000 73.993698 59.364601 -3.704840 -31.099501 -45.644901 67.396797 -0.395320 -19.801901 -2.871390 0.000000 0.000000 0.000000 0.000000 0.000000 0.000000 0.000000 0.000000 0.000000 7.730910 5.474880 0.417314 0.000000 0.000000 0.000000 2.905540 0.965183 0.102902 0.000000 0.000000 0.000000 10.278600 0.731801 0.025912 0.000000 0.000000 0.000000 2.221670 -0.733487 -0.208920 -0.000000 -0.000000 -0.000000 -59.768600 63.190601 -12.226200 31.152500 -46.426498 -68.166702 0.176239 -13.410700 1.911420 -0.000000 0.000000 -0.000000 -0.000000 0.000000 -0.000000 -0.000000 0.000000 -0.000000 -7.730910 5.474880 -0.417314 -0.000000 0.000000 -0.000000 -2.905540 0.965183 -0.102902 -0.000000 0.000000 -0.000000 -10.278600 0.731801 -0.025912 -0.000000 0.000000 -0.000000 -2.221670 -0.733487 0.208920 -0.000000 0.000000 -0.000000 -1.504660 -27.684700 4.336690 -0.045519 17.601801 0.278053 -2.391470 -5.575770 -11.798700 0.000000 0.000000 0.000000 4.536480 -14.308200 5.982650 0.011517 8.930420 -0.136587 0.425494 -9.402120 0.398760 
-0.730769 0.655052 -0.037184 -71.520897 85.713799 -59.011902 5.511060 -11.551000 6.263600 -0.182487 5.166090 1.675180 -2.638740 9.291090 -3.714090 5.797160 -18.325800 -5.984150 -0.000000 0.000000 0.000000 -0.000000 0.000000 0.000000 -0.000000 -0.000000 -0.000000 93.722298 72.207901 -7.748430 -27.926901 -40.783699 85.337898 -0.759957 -23.958700 -3.580540 0.000000 0.000000 0.000000 0.000000 0.000000 0.000000 0.000000 0.000000 0.000000 7.730910 5.474880 0.417314 0.000000 0.000000 0.000000 2.905540 0.965183 0.102902 0.000000 0.000000 0.000000 10.278600 0.731801 0.025912 0.000000 0.000000 0.000000 2.221670 -0.733487 -0.208920 -0.000000 -0.000000 -0.000000 -57.924198 76.012199 -28.991199 27.796700 -41.373798 -86.420700 0.337630 -16.306299 2.356310 -0.000000 0.000000 -0.000000 -0.000000 0.000000 -0.000000 -0.000000 0.000000 -0.000000 -7.730910 5.474880 -0.417314 -0.000000 0.000000 -0.000000 -2.905540 0.965183 -0.102902 -0.000000 0.000000 -0.000000 -10.278600 0.731801 -0.025912 -0.000000 0.000000 -0.000000 -2.221670 -0.733487 0.208920 -0.000000 0.000000 -0.000000 -1.503750 -32.846901 5.291430 -0.079453 21.310699 0.358335 -3.255510 -7.245260 -14.436200 0.000000 0.000000 0.000000 5.885710 -16.923599 7.384900 0.021821 11.201600 -0.185097 0.422868 -12.254600 0.443496 
-0.732412 0.654982 -0.038648 -74.014000 85.677803 -61.472000 5.879110 -12.324500 6.629200 -0.244777 5.659610 1.768060 -2.548650 9.696040 -4.094960 5.472060 -19.127199 -6.797080 -0.000000 0.000000 0.000000 -0.000000 0.000000 0.000000 -0.000000 -0.000000 -0.000000 104.120003 77.009399 -11.935800 -27.885401 -37.560299 90.446404 -0.906462 -25.244600 -3.815790 0.000000 0.000000 0.000000 0.000000 0.000000 0.000000 0.000000 0.000000 0.000000 7.730910 5.474880 0.417314 0.000000 0.000000 0.000000 2.905540 0.965183 0.102902 0.000000 0.000000 0.000000 10.278600 0.731801 0.025912 0.000000 0.000000 0.000000 2.221670 -0.733487 -0.208920 -0.000000 -0.000000 -0.000000 -45.209301 80.069298 -47.437099 27.770399 -38.048500 -91.525101 0.409395 -17.352800 2.522110 -0.000000 0.000000 -0.000000 -0.000000 0.000000 -0.000000 -0.000000 0.000000 -0.000000 -7.730910 5.474880 -0.417314 -0.000000 0.000000 -0.000000 -2.905540 0.965183 -0.102902 -0.000000 0.000000 -0.000000 -10.278600 0.731801 -0.025912 -0.000000 0.000000 -0.000000 -2.221670 -0.733487 0.208920 -0.000000 0.000000 -0.000000 -1.550630 -35.115799 5.132130 -0.102537 23.506201 0.410738 -3.714340 -8.117270 -15.471500 0.000000 0.000000 0.000000 6.433490 -18.021200 7.971410 0.026273 12.153000 -0.208183 0.377885 -13.365500 0.303623 
-0.733219 0.654874 -0.039391 -77.912903 85.582603 -65.559402 5.718720 -12.196400 6.442230 -0.281197 5.808680 1.720140 -2.197690 9.265300 -4.227500 4.602770 -18.299200 -7.241410 -0.000000 0.000000 0.000000 -0.000000 0.000000 0.000000 -0.000000 0.000000 -0.000000 103.570999 76.181801 -11.997900 -27.852699 -37.951302 89.950203 -0.842265 -24.485800 -3.682710 0.000000 0.000000 0.000000 0.000000 0.000000 0.000000 0.000000 0.000000 0.000000 7.730910 5.474880 0.417314 0.000000 0.000000 0.000000 2.905540 0.965183 0.102902 0.000000 0.000000 0.000000 10.278600 0.731801 0.025912 0.000000 0.000000 0.000000 2.221670 -0.733487 -0.208920 -0.000000 0.000000 -0.000000 -46.217098 79.663498 -45.741699 27.742201 -38.419300 -90.963501 0.393580 -17.080799 2.479420 -0.000000 0.000000 -0.000000 -0.000000 0.000000 -0.000000 -0.000000 0.000000 -0.000000 -7.730910 5.474880 -0.417314 -0.000000 0.000000 -0.000000 -2.905540 0.965183 -0.102902 -0.000000 0.000000 -0.000000 -10.278600 0.731801 -0.025912 -0.000000 0.000000 -0.000000 -2.221670 -0.733487 0.208920 -0.000000 0.000000 -0.000000 -1.744720 -35.319199 4.097120 -0.113143 24.621500 0.440986 -3.802450 -8.445660 -15.346500 0.000000 0.000000 0.000000 6.340480 -18.046200 7.947720 0.024552 12.161400 -0.212583 0.301654 -13.232000 0.032134 
-0.733059 0.654441 -0.038570 -82.496498 85.135696 -70.568001 5.352650 -11.700300 6.044980 -0.297560 5.802950 1.618180 -1.799860 8.546350 -4.248260 3.680820 -16.890400 -7.481110 -0.000000 0.000000 0.000000 -0.000000 0.000000 0.000000 0.000000 0.000000 -0.000000 98.463303 73.142799 -10.265200 -27.826401 -39.795898 87.216103 -0.709682 -22.978100 -3.420450 0.000000 0.000000 0.000000 0.000000 0.000000 0.000000 0.000000 0.000000 0.000000 7.730910 5.474880 0.417314 0.000000 0.000000 0.000000 2.905540 0.965183 0.102902 0.000000 0.000000 0.000000 10.278600 0.731801 0.025912 0.000000 0.000000 0.000000 2.221670 -0.733487 -0.208920 0.000000 0.000000 -0.000000 -52.851898 77.516602 -35.871101 27.717100 -40.267899 -88.138901 0.345585 -16.311899 2.358660 0.000000 -0.000000 0.000000 0.000000 -0.000000 0.000000 0.000000 -0.000000 0.000000 -7.730910 5.474880 -0.417314 0.000000 -0.000000 0.000000 -2.905540 0.965183 -0.102902 0.000000 -0.000000 0.000000 -10.278600 0.731801 -0.025912 0.000000 -0.000000 0.000000 -2.221670 -0.733487 0.208920 -0.000000 0.000000 -0.000000 -1.922270 -34.637901 2.794450 -0.117842 25.319901 0.461080 -3.714440 -8.517560 -14.728100 0.000000 0.000000 0.000000 5.998810 -17.620701 7.652870 0.020195 11.783900 -0.209021 0.230568 -12.595100 -0.255870 
